<svg id="Layer_1" data-name="Layer 1" xmlns="http://www.w3.org/2000/svg" viewBox="0 0 156.65 156.67"><defs><style>.cls-1{fill:#9e968d;}.cls-2{fill:#918a81;}</style></defs><path class="cls-1" d="M348.8,160.06c-8,4.15-5.53,15-17.42,18.2-15.6,4.19-22-10.82-27.83,9.06-4.08,15.79,5.75,27.08,9.72,40.62a78.32,78.32,0,0,0,65.07-65.77C367.78,158.28,356,156.29,348.8,160.06Z" transform="translate(-222.54 -72.27)"/><path class="cls-1" d="M266.9,188.78c10.35-6,18.76-16.18,16.59-28.74-3.15-20.66-24.44-11-31.47-23.83-4.82-9.06,7.56-16.36,6.19-25.95-.72-6.39-5.41-11.93-11.16-16.58a78.34,78.34,0,0,0-18.62,86.67C240.84,187.25,256.07,194.27,266.9,188.78Z" transform="translate(-222.54 -72.27)"/><path class="cls-1" d="M303.44,103.72C309.3,101.37,323.1,89,330.21,78a78.26,78.26,0,0,0-59.92.51C277.71,91.7,288.5,109,303.44,103.72Z" transform="translate(-222.54 -72.27)"/><path class="cls-1" d="M320.27,127.88c-1.76,17.2,10.42,9.16,19.41,5.56,10.82-4.29,24.58-4.54,37.27-1.43a78.11,78.11,0,0,0-27-42.49C341.51,103.46,321.82,117.62,320.27,127.88Z" transform="translate(-222.54 -72.27)"/><path class="cls-2" d="M258.21,110.26c1.37,9.59-11,16.89-6.19,26,7,12.85,28.32,3.17,31.47,23.83,2.17,12.56-6.24,22.78-16.59,28.74-10.83,5.49-26.06-1.53-38.47-8.43a78.28,78.28,0,0,0,84.84,47.59c-4-13.54-13.8-24.83-9.72-40.62,5.82-19.88,12.23-4.87,27.83-9.06,11.89-3.18,9.38-14,17.42-18.2,7.22-3.77,19-1.78,29.54,2.11A78.21,78.21,0,0,0,377,132c-12.69-3.11-26.45-2.86-37.27,1.43-9,3.6-21.17,11.64-19.41-5.56,1.55-10.26,21.24-24.42,29.66-38.36A77.62,77.62,0,0,0,340,82.76,78.72,78.72,0,0,0,330.21,78c-7.11,11-20.91,23.39-26.77,25.74-14.94,5.32-25.73-12-33.15-25.23a78,78,0,0,0-23.24,15.19C252.8,98.33,257.49,103.87,258.21,110.26Z" transform="translate(-222.54 -72.27)"/></svg>