<svg id="Layer_1" data-name="Layer 1" xmlns="http://www.w3.org/2000/svg" viewBox="0 0 156.67 156.66"><defs><style>.cls-1{fill:#9b9e9c;}.cls-2{fill:#babbbd;}</style></defs><path class="cls-1" d="M231.91,162.8c-.43,9,10.25,12.3,7.06,24.19-4.18,15.61-20.38,13.65-6.08,28.63,11.64,11.43,26.33,8.56,40,11.89a78.32,78.32,0,0,0-24.42-89.24C239.86,145.47,232.26,154.67,231.91,162.8Z" transform="translate(-121.42 -121.24)"/><path class="cls-1" d="M215.83,248.09c0-11.94-4.63-24.34-16.59-28.74-19.46-7.6-21.73,15.68-36.37,15.34-10.25-.35-10.39-14.73-19.38-18.33-5.89-2.58-13-1.28-19.94,1.37a78.35,78.35,0,0,0,65.75,59.46C201.48,269.9,215.17,260.21,215.83,248.09Z" transform="translate(-121.42 -121.24)"/><path class="cls-1" d="M160.44,173.91c.9-6.25-3-24.41-8.91-36A78.26,78.26,0,0,0,122,190C137.17,190.19,157.58,189.52,160.44,173.91Z" transform="translate(-121.42 -121.24)"/><path class="cls-1" d="M189.78,171.42c14,10.12,13.14-4.45,14.51-14,1.71-11.52,8.37-23.56,17.4-33a78.07,78.07,0,0,0-50.3,2.15C179.25,140.82,181.67,165,189.78,171.42Z" transform="translate(-121.42 -121.24)"/><path class="cls-2" d="M143.49,216.36c9,3.6,9.13,18,19.38,18.33,14.64.34,16.91-22.94,36.37-15.34,12,4.4,16.61,16.8,16.59,28.74-.66,12.12-14.35,21.81-26.53,29.1a78.29,78.29,0,0,0,83.63-49.68c-13.71-3.33-28.4-.46-40-11.89-14.3-15,1.9-13,6.08-28.63,3.19-11.89-7.49-15.15-7.06-24.19.35-8.13,8-17.33,16.6-24.53a78.26,78.26,0,0,0-26.82-13.87c-9,9.43-15.69,21.47-17.4,33-1.37,9.58-.5,24.15-14.51,14-8.11-6.47-10.53-30.6-18.39-44.87a78.48,78.48,0,0,0-19.86,11.31c5.95,11.64,9.81,29.8,8.91,36C157.58,189.52,137.17,190.19,122,190a78.21,78.21,0,0,0,1.53,27.73C130.45,215.08,137.6,213.78,143.49,216.36Z" transform="translate(-121.42 -121.24)"/></svg>