<svg id="Layer_1" data-name="Layer 1" xmlns="http://www.w3.org/2000/svg" viewBox="0 0 156.66 156.66"><defs><style>.cls-1{fill:#afa79c;}.cls-2{fill:#bbb4a9;}</style></defs><path class="cls-1" d="M254.64,166.37c4.89-7.62-2.73-15.78,6-24.48,11.42-11.43,24.48-1.63,19.58-21.76-4.37-15.71-18.52-20.58-28.73-30.31A78.28,78.28,0,0,0,228,179.31C239.09,177.4,250.27,173.24,254.64,166.37Z" transform="translate(-222.54 -72.27)"/><path class="cls-1" d="M311.21,100.55c-6,10.33-8.16,23.39,0,33.18,13.05,16.32,26.65-2.72,39.17,4.9,8.7,5.43,1.63,18,7.61,25.57,3.82,5.18,10.65,7.62,17.95,8.78a78.28,78.28,0,0,0-27.2-84.37C334.54,88.83,317.84,90.38,311.21,100.55Z" transform="translate(-222.54 -72.27)"/><path class="cls-1" d="M322.09,192.48c-3.9,5-9.64,22.62-10.32,35.68a78.25,78.25,0,0,0,51.64-30.4C350.38,190,332.37,180.4,322.09,192.48Z" transform="translate(-222.54 -72.27)"/><path class="cls-1" d="M295.43,180c-7.07-15.77-13.6-2.72-19.58,4.89-7.23,9.13-19,16.22-31.56,19.87A78.06,78.06,0,0,0,288.93,228C289.25,211.74,299.22,189.63,295.43,180Z" transform="translate(-222.54 -72.27)"/><path class="cls-2" d="M358,164.2c-6-7.62,1.09-20.14-7.61-25.57-12.52-7.62-26.12,11.42-39.17-4.9-8.16-9.79-6-22.85,0-33.18,6.63-10.17,23.33-11.72,37.53-11.94a78.3,78.3,0,0,0-97.27,1.21c10.21,9.73,24.36,14.6,28.73,30.31,4.9,20.13-8.16,10.33-19.58,21.76-8.71,8.7-1.09,16.86-6,24.48-4.37,6.87-15.55,11-26.64,12.94a78.15,78.15,0,0,0,16.29,25.42c12.54-3.65,24.33-10.74,31.56-19.87,6-7.61,12.51-20.66,19.58-4.89,3.79,9.66-6.18,31.77-6.5,48.06a78.63,78.63,0,0,0,22.84.13c.68-13.06,6.42-30.72,10.32-35.68,10.28-12.08,28.29-2.46,41.32,5.28A78,78,0,0,0,375.94,173C368.64,171.82,361.81,169.38,358,164.2Z" transform="translate(-222.54 -72.27)"/></svg>