<svg id="Layer_1" data-name="Layer 1" xmlns="http://www.w3.org/2000/svg" viewBox="0 0 303.37 303.37"><defs><style>.cls-1{fill:#cc7745;}.cls-2{fill:#e6dbc6;}.cls-3{fill:#e0c47d;}.cls-4{fill:#f1d385;}.cls-5{fill:#e1844e;}.cls-6{fill:#fcf1db;}</style></defs><path class="cls-1" d="M302.92,90a153,153,0,0,0-22.55-21.22,228.07,228.07,0,0,1,3.08,23.72Z" transform="translate(-36.59 -37.55)"/><path class="cls-2" d="M284.21,110.33c0,.51,0,1,0,1.53,11.25-1,22.45-1.51,33.58-1.53A151.86,151.86,0,0,0,302.92,90l-19.47,2.5C283.9,98.41,284.21,104.33,284.21,110.33Z" transform="translate(-36.59 -37.55)"/><path class="cls-1" d="M281.9,142.58c16.72-1.25,33.35-2.1,49.85-2.37a150.4,150.4,0,0,0-14-29.88c-11.13,0-22.33.57-33.58,1.53A230.51,230.51,0,0,1,281.9,142.58Z" transform="translate(-36.59 -37.55)"/><path class="cls-2" d="M243.13,241c29.95-3.54,59.75-5.76,89.34-4.68A151.49,151.49,0,0,0,340,189.6c-26.3,5.82-52.61,14.35-78.92,21.05A227.84,227.84,0,0,1,243.13,241Z" transform="translate(-36.59 -37.55)"/><path class="cls-1" d="M243.13,241a229.46,229.46,0,0,1-38.4,42.5c37.48-4.32,75.09-6.28,111.21-12.42a150.63,150.63,0,0,0,16.53-34.76C302.88,235.22,273.08,237.44,243.13,241Z" transform="translate(-36.59 -37.55)"/><path class="cls-3" d="M126.31,327.66a151.53,151.53,0,0,0,189.63-56.6c-36.12,6.14-73.73,8.1-111.21,12.42A228,228,0,0,1,126.31,327.66Z" transform="translate(-36.59 -37.55)"/><path class="cls-2" d="M268.83,192.73c23.45-5.73,46.21-15.59,69.71-23.92a151.28,151.28,0,0,0-6.79-28.6c-16.5.27-33.13,1.12-49.85,2.37A226.34,226.34,0,0,1,268.83,192.73Z" transform="translate(-36.59 -37.55)"/><path class="cls-1" d="M338.54,168.81c-23.5,8.33-46.26,18.19-69.71,23.92-2.36,6.1-4.94,12.09-7.8,17.92,26.31-6.7,52.62-15.23,78.92-21.05,0-.12,0-.25,0-.37A149.52,149.52,0,0,0,338.54,168.81Z" transform="translate(-36.59 -37.55)"/><path class="cls-4" d="M205.61,80.88c22.1-8,45.15-13.25,68.69-16.56a151.59,151.59,0,0,0-195,19.48C122.46,80.46,166.89,95,205.61,80.88Z" transform="translate(-36.59 -37.55)"/><path class="cls-5" d="M205.61,80.88C166.89,95,122.46,80.46,79.27,83.8a152.38,152.38,0,0,0-27,38.39c76.13-9.89,154.41-19.78,231.21-29.66a228.07,228.07,0,0,0-3.08-23.72c-2-1.54-4-3.06-6.07-4.49C250.76,67.63,227.71,72.85,205.61,80.88Z" transform="translate(-36.59 -37.55)"/><path class="cls-6" d="M284.21,110.33c0-6-.31-11.92-.76-17.8-76.8,9.88-155.08,19.77-231.21,29.66A151.75,151.75,0,0,0,41.82,150c80.25-4.11,162.59-31.34,242.35-38.1C284.17,111.35,284.21,110.84,284.21,110.33Z" transform="translate(-36.59 -37.55)"/><path class="cls-5" d="M284.17,111.86c-79.76,6.76-162.1,34-242.35,38.1a153.22,153.22,0,0,0-4.65,26.76c81.33-12.18,164.05-28.14,244.73-34.14A230.51,230.51,0,0,0,284.17,111.86Z" transform="translate(-36.59 -37.55)"/><path class="cls-6" d="M170.94,219.57c-45-5.3-88.42-4.1-131.19.58A150.86,150.86,0,0,0,55.7,263c62.74-1.62,125.39-14.67,187.43-22A227.84,227.84,0,0,0,261,210.65C231,218.31,201,223.57,170.94,219.57Z" transform="translate(-36.59 -37.55)"/><path class="cls-5" d="M95.77,309.37c35.14-15.11,72-21.64,109-25.89a229.46,229.46,0,0,0,38.4-42.5c-62,7.33-124.69,20.38-187.43,22A152.44,152.44,0,0,0,95.77,309.37Z" transform="translate(-36.59 -37.55)"/><path class="cls-4" d="M95.77,309.37a152.1,152.1,0,0,0,30.54,18.29,228,228,0,0,0,78.42-44.18C167.75,287.73,130.91,294.26,95.77,309.37Z" transform="translate(-36.59 -37.55)"/><path class="cls-6" d="M37.17,176.72c-.34,4.13-.58,8.29-.58,12.51,0,1.65.07,3.28.13,4.91,64.33-10.53,131.73,7.38,195.48,3.39a153.39,153.39,0,0,0,36.63-4.8,226.34,226.34,0,0,0,13.07-50.15C201.22,148.58,118.5,164.54,37.17,176.72Z" transform="translate(-36.59 -37.55)"/><path class="cls-5" d="M36.72,194.14a151.42,151.42,0,0,0,3,26c42.77-4.68,86.17-5.88,131.19-.58,30,4,60.06-1.26,90.09-8.92,2.86-5.83,5.44-11.82,7.8-17.92a153.39,153.39,0,0,1-36.63,4.8C168.45,201.52,101.05,183.61,36.72,194.14Z" transform="translate(-36.59 -37.55)"/></svg>