<svg id="Layer_1" data-name="Layer 1" xmlns="http://www.w3.org/2000/svg" viewBox="0 0 156.66 156.66"><defs><style>.cls-1{fill:#afaeb1;}.cls-2{fill:#d1d1d3;}</style></defs><path class="cls-1" d="M246,183.81c-4.89,7.61,2.73,15.77-6,24.47-11.42,11.43-24.48,1.64-19.58,21.76,4.37,15.71,18.52,20.58,28.73,30.32a78.3,78.3,0,0,0,23.47-89.5C261.54,172.77,250.36,176.93,246,183.81Z" transform="translate(-121.42 -121.24)"/><path class="cls-1" d="M189.42,249.63c6-10.34,8.16-23.39,0-33.19-13-16.31-26.65,2.72-39.17-4.89-8.7-5.44-1.63-18-7.61-25.57-3.82-5.19-10.65-7.63-17.95-8.78a78.26,78.26,0,0,0,27.2,84.36C166.09,261.34,182.79,259.8,189.42,249.63Z" transform="translate(-121.42 -121.24)"/><path class="cls-1" d="M178.54,157.69c3.9-5,9.64-22.61,10.31-35.68a78.3,78.3,0,0,0-51.63,30.41C150.25,160.15,168.26,169.77,178.54,157.69Z" transform="translate(-121.42 -121.24)"/><path class="cls-1" d="M205.2,170.2c7.07,15.78,13.6,2.72,19.58-4.89,7.23-9.12,19-16.22,31.56-19.87a78.11,78.11,0,0,0-44.64-23.29C211.37,138.43,201.4,160.55,205.2,170.2Z" transform="translate(-121.42 -121.24)"/><path class="cls-2" d="M142.64,186c6,7.61-1.09,20.13,7.61,25.57,12.52,7.61,26.12-11.42,39.17,4.89,8.16,9.8,6,22.85,0,33.19-6.63,10.17-23.33,11.71-37.53,11.93a78.28,78.28,0,0,0,97.27-1.2C239,250.62,224.8,245.75,220.43,230c-4.9-20.12,8.16-10.33,19.58-21.76,8.71-8.7,1.09-16.86,6-24.47,4.37-6.88,15.55-11,26.64-12.95a78.15,78.15,0,0,0-16.29-25.42c-12.54,3.65-24.33,10.75-31.56,19.87-6,7.61-12.51,20.67-19.58,4.89-3.8-9.65,6.17-31.77,6.5-48a78.31,78.31,0,0,0-11.94-.91,80.05,80.05,0,0,0-10.91.77c-.67,13.07-6.41,30.72-10.31,35.68-10.28,12.08-28.29,2.46-41.32-5.27a78,78,0,0,0-12.53,24.78C132,178.35,138.82,180.79,142.64,186Z" transform="translate(-121.42 -121.24)"/></svg>