<svg id="Layer_1" data-name="Layer 1" xmlns="http://www.w3.org/2000/svg" viewBox="0 0 255.35 255.35"><defs><style>.cls-1{fill:#00a0c7;}.cls-2{fill:#0a90b4;}</style></defs><path class="cls-1" d="M303.07,205.38c.09-1.93.14-3.86.15-5.8A127.67,127.67,0,0,0,65.29,135.21c5.42-.41,11.13-.63,17.06-.63,33.23,0,60.16,6.78,60.17,15.15s-26.94,15.15-60.17,15.15A212.75,212.75,0,0,1,53.22,163a127.45,127.45,0,0,0-5.35,36.6c0,.64,0,1.27.05,1.92a638.89,638.89,0,0,1,118.31-10.71C215.5,190.8,262,196.07,303.07,205.38ZM191.89,125.64c9.3-9.16,33-10.11,47.28-4.53C351.65,164.05,125.47,211.82,191.89,125.64Z" transform="translate(-47.87 -71.9)"/><path class="cls-2" d="M239.17,121.11c-14.29-5.58-38-4.63-47.28,4.53C125.47,211.82,351.65,164.05,239.17,121.11Z" transform="translate(-47.87 -71.9)"/><path class="cls-2" d="M142.52,149.73c0-8.37-26.94-15.15-60.17-15.15-5.93,0-11.64.22-17.06.63A127.37,127.37,0,0,0,53.22,163a212.75,212.75,0,0,0,29.13,1.9C115.58,164.88,142.51,158.1,142.52,149.73Z" transform="translate(-47.87 -71.9)"/><path class="cls-2" d="M101.56,303.6c21.72-5.76,48.51-9.17,77.51-9.17,26.72,0,51.56,2.89,72.3,7.86a128.15,128.15,0,0,0,27.09-27.19h-2c-70.57,0-127.79-11-127.78-24.6s57.21-24.59,127.79-24.58c8.18,0,16.17.14,23.92.43a128.19,128.19,0,0,0,2.69-21c-41.1-9.31-87.57-14.58-136.84-14.59A638.89,638.89,0,0,0,47.92,201.5,127.45,127.45,0,0,0,101.56,303.6Z" transform="translate(-47.87 -71.9)"/><path class="cls-1" d="M148.67,250.51c0,13.59,57.21,24.6,127.78,24.6h2a127,127,0,0,0,21.92-48.74c-7.75-.29-15.74-.43-23.92-.43C205.88,225.92,148.66,236.93,148.67,250.51Z" transform="translate(-47.87 -71.9)"/><path class="cls-1" d="M101.56,303.6a127.6,127.6,0,0,0,149.81-1.31c-20.74-5-45.58-7.86-72.3-7.86C150.07,294.43,123.28,297.84,101.56,303.6Z" transform="translate(-47.87 -71.9)"/></svg>