<svg id="Layer_1" data-name="Layer 1" xmlns="http://www.w3.org/2000/svg" viewBox="0 0 260.64 260.63"><defs><style>.cls-1{fill:#e7d5a2;}.cls-2{fill:#cdc292;}</style></defs><path class="cls-1" d="M235.33,134.86c-7.83,0-14.92-24.69-20.09-64.65a128.66,128.66,0,0,0-29-.25c0,53.51-5.59,96.77-12.43,96.77-6.62,0-12-40.57-12.4-91.72a130.32,130.32,0,0,0-40.33,228.43c5.08-62.42,14-103.86,24.13-103.86,11.35,0,21.17,51.89,25.78,127.09a130,130,0,0,0,64.37-1.73c0-2,0-4.05,0-6.1,0-53.83,5.56-97.46,12.43-97.47,6.7,0,12.16,41.6,12.41,93.67a130.3,130.3,0,0,0-6.27-234C248.91,114.57,242.42,134.86,235.33,134.86Z" transform="translate(-69.44 -69.26)"/><path class="cls-2" d="M145.2,199.58c-10.15,0-19,41.44-24.13,103.86A129.82,129.82,0,0,0,171,326.67C166.37,251.47,156.55,199.58,145.2,199.58Z" transform="translate(-69.44 -69.26)"/><path class="cls-2" d="M235.33,134.86c7.09,0,13.58-20.29,18.57-53.81a129.16,129.16,0,0,0-38.66-10.84C220.41,110.17,227.5,134.86,235.33,134.86Z" transform="translate(-69.44 -69.26)"/><path class="cls-2" d="M173.8,166.73c6.84,0,12.38-43.26,12.43-96.77A128.92,128.92,0,0,0,161.4,75C161.78,126.16,167.18,166.73,173.8,166.73Z" transform="translate(-69.44 -69.26)"/><path class="cls-2" d="M247.76,221.37c-6.87,0-12.43,43.64-12.43,97.47,0,2.05,0,4.08,0,6.1a129.43,129.43,0,0,0,24.82-9.9C259.92,263,254.46,221.37,247.76,221.37Z" transform="translate(-69.44 -69.26)"/></svg>