<svg id="Layer_1" data-name="Layer 1" xmlns="http://www.w3.org/2000/svg" viewBox="0 0 260.63 260.64"><defs><style>.cls-1{fill:#f28f62;}.cls-2{fill:#db7f56;}</style></defs><path class="cls-1" d="M264.47,235.15c0-7.83,24.69-14.92,64.66-20.09a131.84,131.84,0,0,0,.94-15.48,128.75,128.75,0,0,0-.69-13.53c-53.51-.05-96.77-5.59-96.77-12.43,0-6.62,40.57-12,91.72-12.4A130.33,130.33,0,0,0,95.89,120.89c62.43,5.08,103.87,14,103.86,24.13,0,11.35-51.89,21.17-127.08,25.78a130.06,130.06,0,0,0,1.73,64.38c2,0,4,0,6.1,0,53.83,0,97.46,5.56,97.46,12.43,0,6.7-41.6,12.16-93.66,12.41a130.3,130.3,0,0,0,234-6.27C284.76,248.73,264.47,242.24,264.47,235.15Z" transform="translate(-69.44 -69.26)"/><path class="cls-2" d="M199.75,145c0-10.15-41.43-19.05-103.86-24.13A129.66,129.66,0,0,0,72.67,170.8C147.86,166.19,199.76,156.37,199.75,145Z" transform="translate(-69.44 -69.26)"/><path class="cls-2" d="M264.47,235.15c0,7.09,20.29,13.58,53.82,18.57a129.45,129.45,0,0,0,10.84-38.66C289.16,220.23,264.48,227.32,264.47,235.15Z" transform="translate(-69.44 -69.26)"/><path class="cls-2" d="M232.61,173.62c0,6.84,43.26,12.38,96.77,12.43a130.45,130.45,0,0,0-5.05-24.83C273.18,161.6,232.6,167,232.61,173.62Z" transform="translate(-69.44 -69.26)"/><path class="cls-2" d="M178,247.58c0-6.87-43.63-12.43-97.46-12.43-2,0-4.08,0-6.1,0A129,129,0,0,0,84.3,260C136.36,259.74,178,254.28,178,247.58Z" transform="translate(-69.44 -69.26)"/></svg>