<svg id="Layer_1" data-name="Layer 1" xmlns="http://www.w3.org/2000/svg" viewBox="0 0 156.66 156.66"><defs><style>.cls-1{fill:#a09994;}.cls-2{fill:#97918c;}.cls-3{fill:#a8a19c;}</style></defs><path class="cls-1" d="M347.11,134.83c-4.89,7.61,2.72,15.77-6,24.47-11.42,11.43-24.48,1.64-19.58,21.76,4.36,15.71,18.52,20.58,28.73,30.32a78.3,78.3,0,0,0,23.47-89.5C362.66,123.79,351.48,128,347.11,134.83Z" transform="translate(-222.54 -72.27)"/><path class="cls-2" d="M290.54,200.65c6-10.34,8.16-23.39,0-33.18-13.05-16.32-26.66,2.71-39.17-4.9-8.7-5.44-1.63-17.95-7.61-25.57-3.82-5.18-10.65-7.63-18-8.78A78.31,78.31,0,0,0,253,212.58C267.21,212.36,283.91,210.82,290.54,200.65Z" transform="translate(-222.54 -72.27)"/><path class="cls-1" d="M279.66,108.72c3.9-5,9.64-22.62,10.31-35.68a78.22,78.22,0,0,0-51.63,30.4C251.36,111.17,269.38,120.8,279.66,108.72Z" transform="translate(-222.54 -72.27)"/><path class="cls-2" d="M306.32,121.23c7.07,15.77,13.59,2.71,19.58-4.9,7.23-9.12,19-16.22,31.56-19.87a78.14,78.14,0,0,0-44.64-23.29C312.49,89.46,302.52,111.57,306.32,121.23Z" transform="translate(-222.54 -72.27)"/><path class="cls-3" d="M243.76,137c6,7.62-1.09,20.13,7.61,25.57,12.51,7.61,26.12-11.42,39.17,4.9,8.16,9.79,6,22.84,0,33.18-6.63,10.17-23.33,11.71-37.53,11.93a78.28,78.28,0,0,0,97.27-1.2c-10.21-9.74-24.37-14.61-28.73-30.32-4.9-20.12,8.16-10.33,19.58-21.76,8.7-8.7,1.09-16.86,6-24.47,4.37-6.87,15.55-11,26.64-13a78.48,78.48,0,0,0-16.29-25.42c-12.54,3.65-24.33,10.75-31.56,19.87-6,7.61-12.51,20.67-19.58,4.9-3.8-9.66,6.17-31.77,6.5-48.06a79.81,79.81,0,0,0-11.94-.9A78.49,78.49,0,0,0,290,73c-.67,13.06-6.41,30.71-10.31,35.68-10.28,12.08-28.3,2.45-41.32-5.28a78.18,78.18,0,0,0-12.54,24.78C233.11,129.37,239.94,131.82,243.76,137Z" transform="translate(-222.54 -72.27)"/></svg>