<svg id="Layer_1" data-name="Layer 1" xmlns="http://www.w3.org/2000/svg" viewBox="0 0 515.54 189.98"><defs><style>.cls-1{fill:none;}.cls-2{fill:#fdd15e;}</style></defs><path class="cls-1" d="M170.79,156.43c-30.28,16.06-47.56,31.4-44.53,42.1s25.59,14.67,59.57,12.55a130.65,130.65,0,0,1-15-54.65Z" transform="translate(-42.37 -53.97)"/><path class="cls-1" d="M91.65,207.73c-4.49-15.85,27.16-39.92,79.13-63.69.05-1,.11-2.08.18-3.11-56,25.53-90.26,51.93-85.29,69.51S133.52,232.53,194.38,225q-1.51-2.15-2.95-4.36C135.24,227.46,96.11,223.49,91.65,207.73Z" transform="translate(-42.37 -53.97)"/><path class="cls-2" d="M557.33,76.17C550.47,52,485.1,47.85,396.15,62.38a129.46,129.46,0,0,1,9.8,12C467,66.82,510.05,71.34,515,88.92s-29.17,43.89-84.95,69.36c-32.36,14.79-72,29.28-115.52,41.6S229.68,220.63,194.38,225c-60.86,7.54-103.74,3-108.71-14.55s29.31-44,85.29-69.51a129.32,129.32,0,0,1,2-15.39c-83.37,34.25-136.89,72-130,96.21s71.6,28.27,159.89,14A1030.41,1030.41,0,0,0,317.42,210a1030.82,1030.82,0,0,0,111.07-38.1C511.17,137.77,564.15,100.27,557.33,76.17Z" transform="translate(-42.37 -53.97)"/><path class="cls-2" d="M126.26,198.53c-3-10.7,14.25-26,44.53-42.1-.21-4.15-.21-8.29,0-12.39-52,23.77-83.62,47.84-79.13,63.69s43.59,19.73,99.78,12.9c35.32-4.29,77.38-12.84,121.8-25.41S398,167.88,430.29,153c51.44-23.64,82.68-47.52,78.22-63.29S464.45,70,407.74,77c2.31,3.39,4.48,6.91,6.48,10.56,34.21-2.19,57,1.82,60,12.51S460.11,126,430.05,142c-29.48,15.7-71.41,32.1-119,45.56S219.17,209,185.83,211.08C151.85,213.2,129.27,209.19,126.26,198.53Z" transform="translate(-42.37 -53.97)"/></svg>