<svg id="Layer_1" data-name="Layer 1" xmlns="http://www.w3.org/2000/svg" viewBox="0 0 303.37 303.37"><defs><style>.cls-1{fill:#c2b392;}.cls-2{fill:#e7d5ad;}.cls-3{fill:#d9c59e;}.cls-4{fill:#fae4b7;}</style></defs><path class="cls-1" d="M314.65,100.74A153,153,0,0,0,292.1,79.52a228.42,228.42,0,0,1,3.08,23.72Z" transform="translate(-48.31 -48.26)"/><path class="cls-1" d="M295.94,121c0,.52,0,1,0,1.53,11.25-1,22.44-1.51,33.58-1.53a152.51,152.51,0,0,0-14.83-20.3l-19.47,2.5C295.63,109.12,295.94,115,295.94,121Z" transform="translate(-48.31 -48.26)"/><path class="cls-2" d="M293.63,153.29c16.71-1.25,33.34-2.1,49.85-2.37a151.53,151.53,0,0,0-14-29.88c-11.14,0-22.33.57-33.58,1.53A230.51,230.51,0,0,1,293.63,153.29Z" transform="translate(-48.31 -48.26)"/><path class="cls-1" d="M254.86,251.69c29.94-3.54,59.74-5.76,89.34-4.68a151.39,151.39,0,0,0,7.48-46.7c-26.3,5.82-52.61,14.35-78.92,21.06A229.45,229.45,0,0,1,254.86,251.69Z" transform="translate(-48.31 -48.26)"/><path class="cls-2" d="M254.86,251.69a230.17,230.17,0,0,1-38.4,42.5c37.47-4.32,75.09-6.28,111.21-12.42A150.84,150.84,0,0,0,344.2,247C314.6,245.93,284.8,248.15,254.86,251.69Z" transform="translate(-48.31 -48.26)"/><path class="cls-1" d="M138,338.37a151.53,151.53,0,0,0,189.63-56.6c-36.12,6.14-73.74,8.1-111.21,12.42A228.09,228.09,0,0,1,138,338.37Z" transform="translate(-48.31 -48.26)"/><path class="cls-1" d="M280.56,203.44c23.44-5.73,46.21-15.59,69.71-23.91a151.19,151.19,0,0,0-6.79-28.61c-16.51.27-33.14,1.12-49.85,2.37A226.89,226.89,0,0,1,280.56,203.44Z" transform="translate(-48.31 -48.26)"/><path class="cls-2" d="M350.27,179.53c-23.5,8.32-46.27,18.18-69.71,23.91q-3.54,9.15-7.8,17.93c26.31-6.71,52.62-15.24,78.92-21.06,0-.12,0-.25,0-.37A149.26,149.26,0,0,0,350.27,179.53Z" transform="translate(-48.31 -48.26)"/><path class="cls-3" d="M217.34,91.59c22.1-8,45.15-13.25,68.69-16.56A151.59,151.59,0,0,0,91,94.51C134.19,91.17,178.62,105.67,217.34,91.59Z" transform="translate(-48.31 -48.26)"/><path class="cls-3" d="M217.34,91.59c-38.72,14.08-83.15-.42-126.34,2.92A152.59,152.59,0,0,0,64,132.9c76.14-9.89,154.42-19.77,231.22-29.66a228.42,228.42,0,0,0-3.08-23.72c-2-1.53-4-3.06-6.07-4.49C262.49,78.34,239.44,83.56,217.34,91.59Z" transform="translate(-48.31 -48.26)"/><path class="cls-3" d="M295.94,121c0-6-.31-11.92-.76-17.8C218.38,113.13,140.1,123,64,132.9a152.45,152.45,0,0,0-10.41,27.77c80.25-4.11,162.59-31.34,242.35-38.1C295.9,122.06,295.94,121.56,295.94,121Z" transform="translate(-48.31 -48.26)"/><path class="cls-4" d="M295.9,122.57c-79.76,6.76-162.1,34-242.35,38.1a152.29,152.29,0,0,0-4.65,26.76c81.33-12.18,164-28.14,244.73-34.14A230.51,230.51,0,0,0,295.9,122.57Z" transform="translate(-48.31 -48.26)"/><path class="cls-3" d="M182.66,230.28c-45-5.3-88.41-4.1-131.18.58a150.56,150.56,0,0,0,16,42.83c62.74-1.61,125.39-14.67,187.43-22a229.45,229.45,0,0,0,17.9-30.32C242.73,229,212.7,234.29,182.66,230.28Z" transform="translate(-48.31 -48.26)"/><path class="cls-4" d="M107.49,320.08c35.14-15.11,72-21.64,109-25.89a230.17,230.17,0,0,0,38.4-42.5c-62,7.33-124.69,20.39-187.43,22A152.55,152.55,0,0,0,107.49,320.08Z" transform="translate(-48.31 -48.26)"/><path class="cls-3" d="M107.49,320.08A152.17,152.17,0,0,0,138,338.37a228.09,228.09,0,0,0,78.42-44.18C179.48,298.44,142.63,305,107.49,320.08Z" transform="translate(-48.31 -48.26)"/><path class="cls-3" d="M48.9,187.43c-.34,4.13-.59,8.29-.59,12.51,0,1.65.08,3.28.13,4.91,64.34-10.53,131.74,7.38,195.48,3.39a153.47,153.47,0,0,0,36.64-4.8,226.89,226.89,0,0,0,13.07-50.15C213,159.29,130.23,175.25,48.9,187.43Z" transform="translate(-48.31 -48.26)"/><path class="cls-4" d="M48.44,204.85a152.31,152.31,0,0,0,3,26c42.77-4.68,86.16-5.88,131.18-.58,30,4,60.07-1.26,90.1-8.91q4.28-8.76,7.8-17.93a153.47,153.47,0,0,1-36.64,4.8C180.18,212.23,112.78,194.32,48.44,204.85Z" transform="translate(-48.31 -48.26)"/></svg>