<svg id="Layer_1" data-name="Layer 1" xmlns="http://www.w3.org/2000/svg" viewBox="0 0 260.63 260.64"><defs><style>.cls-1{fill:#e3d3a5;}.cls-2{fill:#d0c095;}</style></defs><path class="cls-1" d="M236.16,115c0,7.83-24.69,14.92-64.66,20.08a134.35,134.35,0,0,0-.94,15.49,131.5,131.5,0,0,0,.7,13.53c53.5.05,96.77,5.59,96.76,12.42,0,6.62-40.56,12-91.72,12.41a130.33,130.33,0,0,0,228.44,40.33c-62.43-5.08-103.86-14-103.86-24.13,0-11.35,51.89-21.17,127.09-25.78A130.23,130.23,0,0,0,426.23,115c-2,0-4,0-6.09,0-53.83,0-97.47-5.56-97.47-12.43,0-6.7,41.6-12.16,93.67-12.41a130.3,130.3,0,0,0-234,6.27C215.87,101.45,236.16,107.94,236.16,115Z" transform="translate(-170.56 -20.28)"/><path class="cls-2" d="M300.88,205.16c0,10.14,41.43,19.05,103.86,24.13A129.89,129.89,0,0,0,428,179.38C352.77,184,300.88,193.81,300.88,205.16Z" transform="translate(-170.56 -20.28)"/><path class="cls-2" d="M236.16,115c0-7.09-20.29-13.58-53.81-18.57a129.19,129.19,0,0,0-10.85,38.65C211.47,130,236.16,122.86,236.16,115Z" transform="translate(-170.56 -20.28)"/><path class="cls-2" d="M268,176.55c0-6.83-43.26-12.37-96.76-12.42a129.83,129.83,0,0,0,5,24.83C227.46,188.58,268,183.17,268,176.55Z" transform="translate(-170.56 -20.28)"/><path class="cls-2" d="M322.67,102.6c0,6.87,43.64,12.43,97.47,12.43,2.05,0,4.07,0,6.09,0a129.57,129.57,0,0,0-9.89-24.81C364.27,90.44,322.67,95.9,322.67,102.6Z" transform="translate(-170.56 -20.28)"/></svg>