<svg id="Layer_1" data-name="Layer 1" xmlns="http://www.w3.org/2000/svg" viewBox="0 0 260.63 260.64"><defs><style>.cls-1{fill:#e9ebeb;}.cls-2{fill:#d7d8d6;}</style></defs><path class="cls-1" d="M135,164c0,7.83-24.69,14.92-64.65,20.08a128.75,128.75,0,0,0-.25,29c53.51,0,96.77,5.59,96.77,12.42,0,6.62-40.57,12-91.72,12.41a130.32,130.32,0,0,0,228.43,40.32c-62.42-5.07-103.86-14-103.86-24.12,0-11.36,51.89-21.17,127.09-25.79A130.33,130.33,0,0,0,325.12,164q-3,0-6.1,0c-53.83,0-97.46-5.57-97.47-12.43,0-6.7,41.6-12.16,93.67-12.41a130.3,130.3,0,0,0-234,6.27C114.75,150.43,135,156.92,135,164Z" transform="translate(-69.44 -69.26)"/><path class="cls-2" d="M199.76,254.14c0,10.14,41.44,19.05,103.86,24.12a129.82,129.82,0,0,0,23.23-49.91C251.65,233,199.76,242.78,199.76,254.14Z" transform="translate(-69.44 -69.26)"/><path class="cls-2" d="M135,164c0-7.09-20.29-13.58-53.81-18.57a129.18,129.18,0,0,0-10.84,38.65C110.35,178.93,135,171.84,135,164Z" transform="translate(-69.44 -69.26)"/><path class="cls-2" d="M166.91,225.53c0-6.83-43.26-12.38-96.77-12.42a129.08,129.08,0,0,0,5,24.83C126.34,237.56,166.91,232.15,166.91,225.53Z" transform="translate(-69.44 -69.26)"/><path class="cls-2" d="M221.55,151.58c0,6.86,43.64,12.43,97.47,12.43q3.08,0,6.1,0a129.6,129.6,0,0,0-9.9-24.81C263.15,139.42,221.55,144.88,221.55,151.58Z" transform="translate(-69.44 -69.26)"/></svg>